<?xml version="1.0" encoding="utf-8"?>
<!-- Generator: Adobe Illustrator 27.1.1, SVG Export Plug-In . SVG Version: 6.00 Build 0)  -->
<svg version="1.1" id="Layer_1" xmlns="http://www.w3.org/2000/svg" xmlns:xlink="http://www.w3.org/1999/xlink" x="0px" y="0px"
	 viewBox="0 0 283.5 113.4" style="enable-background:new 0 0 283.5 113.4;" xml:space="preserve">
<style type="text/css">
	.st0{fill:#B6C9E7;}
	.st1{fill:#027DFA;}
</style>
<g>
	<path class="st0" d="M111.5,52L89.7,30.3c-2.6-2.6-6.8-2.6-9.3,0l-9.5,9.5L83.1,52c2.6,2.6,2.6,6.8,0,9.3L70.9,73.6l9.5,9.5
		c2.6,2.6,6.8,2.6,9.3,0l21.8-21.8C114,58.8,114,54.6,111.5,52z"/>
	<path class="st1" d="M58.6,52l12.2-12.2l-9.5-9.5c-2.6-2.6-6.8-2.6-9.3,0L30.3,52c-2.6,2.6-2.6,6.8,0,9.3L52,83.1
		c2.6,2.6,6.8,2.6,9.3,0l9.5-9.5L58.6,61.4C56.1,58.8,56.1,54.6,58.6,52z"/>
	<path d="M83.1,52L70.9,39.8L58.6,52c-2.6,2.6-2.6,6.8,0,9.3l12.2,12.2l12.2-12.2C85.7,58.8,85.7,54.6,83.1,52z"/>
</g>
<g>
	<path d="M154.6,51c0,6.2-5,11.3-11.5,11.3h-6v10.3c0,0.7-0.4,1.2-1.2,1.2h-4.4c-0.7,0-1.2-0.4-1.2-1.2V40.8c0-0.7,0.4-1.2,1.2-1.2
		h5.5h6C149.5,39.7,154.6,44.7,154.6,51z M147.9,51c0-2.8-2.1-5-4.8-5h-6V56h6C145.8,56,147.9,53.8,147.9,51z"/>
	<path d="M157.2,61.6c0-7.2,5.7-12.8,12.9-12.8s12.9,5.6,12.9,12.8s-5.7,12.8-12.9,12.8S157.2,68.8,157.2,61.6z M176.6,61.6
		c0-3.9-2.9-6.7-6.6-6.7s-6.6,2.8-6.6,6.7s2.9,6.7,6.6,6.7S176.6,65.5,176.6,61.6z"/>
	<path d="M200.7,50.1v4.6c0,0.7-0.3,1.1-0.9,1.1c-3,0-5.8,1.5-5.8,5.9v10.8c0,0.7-0.4,1.2-1.2,1.2h-4c-0.7,0-1.2-0.4-1.2-1.2v-22
		c0-0.7,0.4-1.2,1.2-1.2h4c0.7,0,1.2,0.4,1.2,1.2v2.5c1-2.5,3.1-3.7,5.5-4C200.3,48.9,200.7,49.4,200.7,50.1z"/>
	<path d="M218.7,50.6v3.7c0,0.7-0.4,1.2-1.2,1.2h-3v17.1c0,0.7-0.4,1.2-1.2,1.2h-4c-0.7,0-1.2-0.4-1.2-1.2V55.4h-3
		c-0.7,0-1.2-0.4-1.2-1.2v-3.7c0-0.7,0.4-1.2,1.2-1.2h3v-6.6c0-0.7,0.4-1.2,1.2-1.2h4c0.7,0,1.2,0.4,1.2,1.2v6.6h3
		C218.3,49.4,218.7,49.8,218.7,50.6z"/>
	<path d="M243.8,40.8v4.1c0,0.7-0.4,1.2-1.2,1.2h-12.1v8.7h11.7c0.7,0,1.2,0.4,1.2,1.2V60c0,0.7-0.4,1.2-1.2,1.2h-11.7v11.4
		c0,0.7-0.4,1.2-1.2,1.2H225c-0.7,0-1.2-0.4-1.2-1.2V40.8c0-0.7,0.4-1.2,1.2-1.2h5.5h12.1C243.4,39.7,243.8,40.1,243.8,40.8z"/>
</g>
</svg>
